<svg xmlns:svg="http://www.w3.org/2000/svg" xmlns="http://www.w3.org/2000/svg" viewBox="0 0 337 52" height="52px" width="337px" version="1.1">
	<g xmlns="http://www.w3.org/2000/svg" transform="translate(-343 -419)">
		<path d="m 333.74769,-2.088 q 0,0.792 -0.864,1.296 -0.864,0.504 -2.16,0.792 -1.224,0.288 -2.664,0.432 -1.44,0.144 -2.52,0.144 -2.376,0 -4.536,-0.36 -2.16,-0.36 -3.888,-1.656 -1.656,-1.368 -2.664,-3.888 -1.008,-2.592 -1.008,-6.912 v -17.784 q 0,-0.864 -0.72,-0.864 h -3.456 q -1.368,0 -1.368,-1.368 v -3.528 q 0,-1.296 1.368,-1.296 h 3.456 q 0.72,0 0.72,-0.864 v -7.272 q 0,-1.368 1.296,-1.368 h 6.264 q 1.368,0 1.368,1.368 v 7.272 q 0,0.864 0.792,0.864 h 9.288 q 1.296,0 1.296,1.296 v 3.528 q 0,1.368 -1.296,1.368 h -9.288 q -0.792,0 -0.792,0.864 v 18.648 q 0.072,1.08 0.288,2.088 0.216,0.936 0.72,1.728 0.576,0.72 1.44,1.152 0.936,0.432 2.448,0.432 1.368,0 2.232,-0.216 0.864,-0.216 1.44,-0.504 0.648,-0.288 1.008,-0.504 0.432,-0.216 0.792,-0.216 1.008,0 1.008,1.224 v 4.104 z" stroke-width="0" stroke-linejoin="miter" stroke-miterlimit="2" fill="#2e2e2e" stroke="#2e2e2e" transform="translate(5.684341886080802e-14 362.46883999999994) translate(343.63600644999997 57.91928) scale(0.83) translate(-307.89969 46.584)" />
		<path d="m 374.66844,-1.368 q 0,2.88 -0.36,4.968 -0.288,2.16 -1.08,3.816 -1.08,2.16 -2.88,3.672 -1.728,1.512 -4.104,2.376 -2.376,0.936 -5.256,1.368 -2.808,0.432 -5.976,0.432 -1.944,0 -3.888,-0.216 -1.872,-0.216 -3.6,-0.576 -1.656,-0.288 -3.024,-0.72 -1.368,-0.36 -2.232,-0.792 -0.792,-0.432 -1.152,-0.864 -0.288,-0.36 -0.288,-1.152 V 6.912 q 0,-1.224 0.936,-1.224 0.504,0 1.368,0.504 0.864,0.504 2.304,1.08 1.512,0.576 3.744,1.08 2.232,0.504 5.472,0.504 2.088,0 4.392,-0.432 2.304,-0.36 4.032,-1.512 1.728,-1.152 2.16,-2.88 0.432,-1.728 0.432,-3.6 v -1.728 q 0,-1.008 -0.648,-1.008 -0.36,0 -1.08,0.36 -0.648,0.36 -1.8,0.792 -1.08,0.432 -2.592,0.792 -1.512,0.36 -3.528,0.36 -8.136,0 -12.6,-4.824 -4.392,-4.824 -4.392,-13.536 0,-4.752 1.224,-8.352 1.296,-3.672 3.6,-6.048 2.376,-2.448 5.616,-3.672 3.24,-1.224 7.2,-1.224 1.944,0 3.312,0.36 1.44,0.288 2.448,0.72 1.008,0.36 1.728,0.72 0.72,0.288 1.296,0.288 0.504,0 0.576,-0.144 0.144,-0.216 0.144,-0.432 0,-0.936 1.08,-0.936 h 6.12 q 1.296,0 1.296,1.296 z m -9,-25.848 q 0,-1.08 -0.576,-1.8 -0.576,-0.792 -1.584,-1.224 -0.936,-0.504 -2.16,-0.72 -1.152,-0.288 -2.376,-0.288 -4.968,0 -7.776,2.952 -2.736,2.952 -2.736,9.792 0,5.616 2.376,8.856 2.376,3.168 8.136,3.168 2.736,0 4.68,-1.008 2.016,-1.008 2.016,-3.24 z" stroke-width="0" stroke-linejoin="miter" stroke-miterlimit="2" fill="#2e2e2e" stroke="#2e2e2e" transform="translate(5.684341886080802e-14 362.46883999999994) translate(369.47286894999996 65.32952) scale(0.83) translate(-339.02844 37.656)" />
		<path d="m 396.73419,-19.152 q 0,0.504 -0.288,0.864 -0.288,0.36 -0.936,0.36 h -12.384 q -0.576,0 -0.936,-0.36 -0.288,-0.36 -0.288,-0.864 v -3.96 q 0,-1.08 1.224,-1.08 h 12.384 q 1.224,0 1.224,1.08 v 3.96 z" stroke-width="0" stroke-linejoin="miter" stroke-miterlimit="2" fill="#2e2e2e" stroke="#2e2e2e" transform="translate(5.684341886080802e-14 362.46883999999994) translate(405.05808145000003 76.50464000000001) scale(0.83) translate(-381.90219 24.192)" />
		<path d="m 425.86719,-30.672 q 0,1.08 -1.008,1.08 -0.432,0 -0.792,-0.072 -0.36,-0.072 -0.936,-0.144 -0.504,-0.144 -1.44,-0.216 -0.864,-0.144 -2.304,-0.144 -3.096,0 -4.824,1.296 -1.728,1.296 -1.728,4.248 v 23.328 q 0,1.296 -1.152,1.296 h -6.552 q -1.224,0 -1.224,-1.296 v -34.488 q 0,-1.296 1.224,-1.296 h 6.264 q 0.936,0 0.936,0.864 v 0.648 q 0,0.72 0.792,0.72 0.792,0 1.656,-0.432 0.864,-0.432 1.872,-0.936 1.08,-0.576 2.448,-1.008 1.44,-0.432 3.312,-0.432 2.232,0 2.808,0.648 0.648,0.576 0.648,1.512 v 4.824 z" stroke-width="0" stroke-linejoin="miter" stroke-miterlimit="2" fill="#2e2e2e" stroke="#2e2e2e" transform="translate(5.684341886080802e-14 362.46883999999994) translate(423.32223145000006 65.32952) scale(0.83) translate(-403.90719 37.656)" />
		<path d="m 463.16656,-18.36 q 0,1.296 -1.296,1.296 h -22.824 q -1.08,0 -1.08,1.08 0,4.752 2.88,7.56 2.88,2.808 8.568,2.808 2.448,0 4.248,-0.432 1.872,-0.432 3.168,-0.864 1.296,-0.504 2.088,-0.936 0.792,-0.432 1.152,-0.432 1.08,0 1.08,1.152 v 3.744 q 0,1.08 -1.08,1.872 -1.008,0.72 -2.808,1.224 -1.728,0.504 -4.104,0.72 -2.304,0.216 -4.824,0.216 -10.008,0 -14.904,-4.896 -4.824,-4.968 -4.824,-13.896 0,-4.896 1.296,-8.568 1.296,-3.672 3.672,-6.048 2.376,-2.448 5.616,-3.672 3.312,-1.224 7.2,-1.224 4.392,0 7.56,1.296 3.168,1.224 5.184,3.528 2.088,2.232 3.024,5.472 1.008,3.24 1.008,7.128 z m -9.072,-5.472 q 0,-3.672 -2.16,-5.76 -2.088,-2.16 -5.904,-2.16 -3.96,0 -6.048,2.376 -2.088,2.304 -2.088,5.76 0,0.36 0.144,0.576 0.144,0.144 0.72,0.144 h 14.472 q 0.504,0 0.648,-0.144 0.216,-0.216 0.216,-0.792 z" stroke-width="0" stroke-linejoin="miter" stroke-miterlimit="2" fill="#2e2e2e" stroke="#2e2e2e" transform="translate(5.684341886080802e-14 362.46883999999994) translate(443.8227085500001 65.32952) scale(0.83) translate(-428.60656 37.656)" />
		<path d="m 493.51794,-10.728 q 0,5.256 -3.528,8.28 -3.528,3.024 -10.08,3.024 -3.312,0 -5.904,-0.504 -2.592,-0.504 -4.032,-1.368 -1.152,-0.648 -1.152,-2.016 v -3.744 q 0,-1.224 1.08,-1.224 0.432,0 1.08,0.432 0.72,0.36 1.8,0.864 1.08,0.504 2.736,0.936 1.656,0.36 4.032,0.36 2.88,0 4.104,-1.008 1.296,-1.008 1.296,-2.736 0,-1.296 -0.72,-2.16 -0.648,-0.936 -2.736,-2.232 l -5.76,-3.456 q -3.168,-1.944 -4.68,-4.104 -1.512,-2.232 -1.512,-5.4 0,-5.04 3.384,-7.92 3.384,-2.952 9.792,-2.952 2.88,0 5.184,0.504 2.376,0.504 3.816,1.296 0.648,0.36 0.864,0.792 0.216,0.432 0.216,1.08 v 3.96 q 0,0.504 -0.216,0.864 -0.144,0.288 -0.864,0.288 -0.504,0 -1.152,-0.36 -0.648,-0.432 -1.656,-0.864 -0.936,-0.504 -2.304,-0.864 -1.296,-0.432 -3.24,-0.432 -2.88,0 -4.176,0.936 -1.224,0.864 -1.224,2.376 0,1.224 0.648,2.016 0.72,0.792 2.304,1.8 l 6.336,3.816 q 3.384,2.088 4.824,4.32 1.44,2.232 1.44,5.4 z" stroke-width="0" stroke-linejoin="miter" stroke-miterlimit="2" fill="#2e2e2e" stroke="#2e2e2e" transform="translate(5.684341886080802e-14 362.46883999999994) translate(477.20147395000004 65.32952) scale(0.83) translate(-468.82194 37.656)" />
		<path d="m 536.70219,-18.648 q 0,4.176 -1.152,7.704 -1.08,3.528 -3.384,6.12 -2.304,2.592 -5.832,4.032 -3.456,1.44 -8.208,1.44 -4.536,0 -8.064,-1.368 -3.456,-1.368 -5.76,-3.816 -2.304,-2.52 -3.528,-6.048 -1.152,-3.528 -1.152,-7.848 0,-4.176 1.08,-7.704 1.152,-3.528 3.456,-6.048 2.304,-2.592 5.76,-4.032 3.528,-1.44 8.28,-1.44 4.536,0 7.992,1.368 3.456,1.368 5.76,3.888 2.376,2.448 3.528,5.976 1.224,3.456 1.224,7.776 z m -9.36,-0.144 q 0,-6.84 -2.376,-9.72 -2.304,-2.88 -6.84,-2.88 -4.536,0 -6.84,3.024 -2.304,3.024 -2.304,10.08 0,6.84 2.304,9.792 2.304,2.88 6.912,2.88 4.464,0 6.768,-3.024 2.376,-3.024 2.376,-10.152 z" stroke-width="0" stroke-linejoin="miter" stroke-miterlimit="2" fill="#2e2e2e" stroke="#2e2e2e" transform="translate(5.684341886080802e-14 362.46883999999994) translate(502.76568145000005 65.32952) scale(0.83) translate(-499.62219 37.656)" />
		<path d="m 576.78481,-1.296 q 0,1.296 -1.296,1.296 h -6.192 q -1.008,0 -1.008,-0.936 0,-0.504 -0.72,-0.504 -0.864,0 -1.728,0.36 -0.864,0.288 -2.016,0.648 -1.152,0.36 -2.664,0.648 -1.512,0.36 -3.744,0.36 -3.168,0 -5.904,-0.792 -2.664,-0.864 -4.392,-2.808 -0.936,-1.008 -1.512,-2.088 -0.504,-1.152 -0.792,-2.52 -0.288,-1.44 -0.36,-3.168 -0.072,-1.8 -0.072,-4.104 v -20.88 q 0,-1.296 1.224,-1.296 h 6.552 q 1.152,0 1.152,1.296 v 22.104 q 0,4.032 1.656,5.904 1.656,1.8 5.904,1.8 1.008,0 2.232,-0.216 1.224,-0.216 2.16,-0.576 1.296,-0.576 1.944,-1.368 0.648,-0.864 0.648,-2.304 v -25.344 q 0,-1.296 1.152,-1.296 h 6.552 q 1.224,0 1.224,1.296 v 34.488 z" stroke-width="0" stroke-linejoin="miter" stroke-miterlimit="2" fill="#2e2e2e" stroke="#2e2e2e" transform="translate(5.684341886080802e-14 362.46883999999994) translate(539.9186560500001 65.80760000000001) scale(0.83) translate(-544.38481 37.08)" />
		<path d="m 608.82031,-30.672 q 0,1.08 -1.008,1.08 -0.432,0 -0.792,-0.072 -0.36,-0.072 -0.936,-0.144 -0.504,-0.144 -1.44,-0.216 -0.864,-0.144 -2.304,-0.144 -3.096,0 -4.824,1.296 -1.728,1.296 -1.728,4.248 v 23.328 q 0,1.296 -1.152,1.296 h -6.552 q -1.224,0 -1.224,-1.296 v -34.488 q 0,-1.296 1.224,-1.296 h 6.264 q 0.936,0 0.936,0.864 v 0.648 q 0,0.72 0.792,0.72 0.792,0 1.656,-0.432 0.864,-0.432 1.872,-0.936 1.08,-0.576 2.448,-1.008 1.44,-0.432 3.312,-0.432 2.232,0 2.808,0.648 0.648,0.576 0.648,1.512 v 4.824 z" stroke-width="0" stroke-linejoin="miter" stroke-miterlimit="2" fill="#2e2e2e" stroke="#2e2e2e" transform="translate(5.684341886080802e-14 362.46883999999994) translate(575.17332105 65.32952) scale(0.83) translate(-586.86031 37.656)" />
		<path d="m 642.44769,-3.24 q 0,1.368 -1.368,2.016 -1.656,0.864 -4.68,1.296 -2.952,0.504 -5.976,0.504 -9.432,0 -14.184,-4.896 -4.68,-4.968 -4.68,-13.824 0,-4.392 1.224,-7.992 1.224,-3.6 3.672,-6.12 2.448,-2.592 6.12,-3.96 3.744,-1.44 8.784,-1.44 2.952,0 5.76,0.576 2.808,0.504 4.032,1.152 0.864,0.432 1.08,0.864 0.216,0.36 0.216,1.152 v 4.176 q 0,1.152 -1.008,1.152 -0.648,0 -1.296,-0.36 -0.648,-0.432 -1.656,-0.864 -1.008,-0.504 -2.52,-0.864 -1.512,-0.432 -3.816,-0.432 -5.832,0 -8.568,3.528 -2.664,3.456 -2.664,9.288 0,6.264 2.88,9.288 2.88,3.024 7.848,3.024 2.376,0 3.96,-0.36 1.656,-0.432 2.736,-0.936 1.152,-0.504 1.872,-0.864 0.72,-0.432 1.224,-0.432 1.008,0 1.008,1.224 v 4.104 z" stroke-width="0" stroke-linejoin="miter" stroke-miterlimit="2" fill="#2e2e2e" stroke="#2e2e2e" transform="translate(5.684341886080802e-14 362.46883999999994) translate(595.67380645 65.32952) scale(0.83) translate(-611.55969 37.656)" />
		<path d="m 683.24469,-18.36 q 0,1.296 -1.296,1.296 h -22.824 q -1.08,0 -1.08,1.08 0,4.752 2.88,7.56 2.88,2.808 8.568,2.808 2.448,0 4.248,-0.432 1.872,-0.432 3.168,-0.864 1.296,-0.504 2.088,-0.936 0.792,-0.432 1.152,-0.432 1.08,0 1.08,1.152 v 3.744 q 0,1.08 -1.08,1.872 -1.008,0.72 -2.808,1.224 -1.728,0.504 -4.104,0.72 -2.304,0.216 -4.824,0.216 -10.008,0 -14.904,-4.896 -4.824,-4.968 -4.824,-13.896 0,-4.896 1.296,-8.568 1.296,-3.672 3.672,-6.048 2.376,-2.448 5.616,-3.672 3.312,-1.224 7.2,-1.224 4.392,0 7.56,1.296 3.168,1.224 5.184,3.528 2.088,2.232 3.024,5.472 1.008,3.24 1.008,7.128 z m -9.072,-5.472 q 0,-3.672 -2.16,-5.76 -2.088,-2.16 -5.904,-2.16 -3.96,0 -6.048,2.376 -2.088,2.304 -2.088,5.76 0,0.36 0.144,0.576 0.144,0.144 0.72,0.144 h 14.472 q 0.504,0 0.648,-0.144 0.216,-0.216 0.216,-0.792 z" stroke-width="0" stroke-linejoin="miter" stroke-miterlimit="2" fill="#2e2e2e" stroke="#2e2e2e" transform="translate(5.684341886080802e-14 362.46883999999994) translate(626.4875564499999 65.32952) scale(0.83) translate(-648.68469 37.656)" />
		<path d="m 713.59606,-10.728 q 0,5.256 -3.528,8.28 -3.528,3.024 -10.08,3.024 -3.312,0 -5.904,-0.504 -2.592,-0.504 -4.032,-1.368 -1.152,-0.648 -1.152,-2.016 v -3.744 q 0,-1.224 1.08,-1.224 0.432,0 1.08,0.432 0.72,0.36 1.8,0.864 1.08,0.504 2.736,0.936 1.656,0.36 4.032,0.36 2.88,0 4.104,-1.008 1.296,-1.008 1.296,-2.736 0,-1.296 -0.72,-2.16 -0.648,-0.936 -2.736,-2.232 l -5.76,-3.456 q -3.168,-1.944 -4.68,-4.104 -1.512,-2.232 -1.512,-5.4 0,-5.04 3.384,-7.92 3.384,-2.952 9.792,-2.952 2.88,0 5.184,0.504 2.376,0.504 3.816,1.296 0.648,0.36 0.864,0.792 0.216,0.432 0.216,1.08 v 3.96 q 0,0.504 -0.216,0.864 -0.144,0.288 -0.864,0.288 -0.504,0 -1.152,-0.36 -0.648,-0.432 -1.656,-0.864 -0.936,-0.504 -2.304,-0.864 -1.296,-0.432 -3.24,-0.432 -2.88,0 -4.176,0.936 -1.224,0.864 -1.224,2.376 0,1.224 0.648,2.016 0.72,0.792 2.304,1.8 l 6.336,3.816 q 3.384,2.088 4.824,4.32 1.44,2.232 1.44,5.4 z" stroke-width="0" stroke-linejoin="miter" stroke-miterlimit="2" fill="#2e2e2e" stroke="#2e2e2e" transform="translate(5.684341886080802e-14 362.46883999999994) translate(659.86631355 65.32952) scale(0.83) translate(-688.90006 37.656)" />
	</g>
</svg>
